Coordinates
version=1
nRows=11
nColumns=20
inDegrees=yes

Units are S.I. units (second, meters, Newtons, ...)
Angles are in degrees.

endheader
time	Th_rotX	Th_rotY	Th_rotZ	Th_transX	Th_transY	Th_transZ	Clav_rotZ_right	Clav_rotY_right	Clav_rotX_right	Scap_rotZ_right	Scap_rotY_right	Scap_rotX_right	Hum_rotZ_right	Hum_rotY_right	Hum_rotZZ_right	Elb_flex_right	Elb_ProSup_right	wrist_dev_r	wrist_flex_r
      0.87666667	     -3.58445092	     -2.14200007	      0.17988808	      0.50902447	      1.43579005	     -0.44401121	     14.60625197	      1.29614731	     48.35497822	    -21.32650793	    -28.64788976	     -3.84156519	      0.52040264	    -33.13501183	    -71.70790442	     19.60004962	     42.20925917	     31.17723182	     -0.35366944
      0.88000000	     -3.58471630	     -2.14108737	      0.17826508	      0.50905057	      1.43578259	     -0.44402247	     14.60569104	      1.29624264	     48.35517385	    -21.32648545	    -28.64788976	     -3.84132473	      0.51999470	    -33.13494031	    -71.70786949	     19.60086827	     42.20918640	     31.17732911	     -0.35369557
      0.88333333	     -3.58530215	     -2.14045563	      0.17629658	      0.50905316	      1.43577800	     -0.44402107	     14.60531909	      1.29676947	     48.35512610	    -21.32673351	    -28.64788976	     -3.84158045	      0.51957150	    -33.13532888	    -71.70790381	     19.60162272	     42.20910922	     31.17743791	     -0.35373443
      0.88666667	     -3.58559952	     -2.13858717	      0.17254864	      0.50910195	      1.43578082	     -0.44406703	     14.60424776	      1.29659919	     48.35547969	    -21.32624245	    -28.64788976	     -3.84055906	      0.51887122	    -33.13481073	    -71.70782143	     19.60353595	     42.20902415	     31.17770699	     -0.35378246
      0.89000000	     -3.58633579	     -2.13813450	      0.17033448	      0.50908736	      1.43577861	     -0.44404350	     14.60396911	      1.29733381	     48.35523801	    -21.32666235	    -28.64788976	     -3.84110035	      0.51847675	    -33.13545479	    -71.70791204	     19.60418886	     42.20895041	     31.17783210	     -0.35382897
      0.89333333	     -3.58642384	     -2.13716284	      0.16899028	      0.50912253	      1.43577696	     -0.44405980	     14.60336486	      1.29716220	     48.35561369	    -21.32639719	    -28.64788976	     -3.84049631	      0.51808158	    -33.13508109	    -71.70791535	     19.60496016	     42.20888361	     31.17794786	     -0.35386163
      0.89666667	     -3.58668304	     -2.13679673	      0.16684921	      0.50911214	      1.43576683	     -0.44405933	     14.60319546	      1.29743447	     48.35524901	    -21.32651272	    -28.64788976	     -3.84070509	      0.51793105	    -33.13544206	    -71.70799280	     19.60552682	     42.20882746	     31.17808613	     -0.35390720
      0.90000000	     -3.58689448	     -2.13608432	      0.16515141	      0.50913620	      1.43575870	     -0.44406773	     14.60277490	      1.29751517	     48.35528316	    -21.32644543	    -28.64788976	     -3.84054955	      0.51763712	    -33.13547161	    -71.70799464	     19.60622630	     42.20874265	     31.17821108	     -0.35395146
      0.90333333	     -3.58745724	     -2.13558933	      0.16309647	      0.50913913	      1.43576273	     -0.44406671	     14.60248601	      1.29802420	     48.35510615	    -21.32663255	    -28.64788976	     -3.84079994	      0.51731375	    -33.13587014	    -71.70804494	     19.60688910	     42.20864625	     31.17835081	     -0.35400880
      0.90666667	     -3.60706448	     -2.06932196	     -0.03188500	      0.50928209	      1.43548836	     -0.44414572	     14.56792285	      1.28708317	     48.36565413	    -21.30058643	    -28.64614357	     -3.80063269	      0.48178763	    -33.12297976	    -71.71309619	     19.68943240	     42.19953363	     31.19473611	     -0.35926780
      0.91000000	     -3.60631961	     -2.07086327	     -0.03219076	      0.50924623	      1.43549743	     -0.44418418	     14.56927447	      1.28624168	     48.36498925	    -21.30000798	    -28.64768299	     -3.80043564	      0.48224077	    -33.12318499	    -71.71334682	     19.68976940	     42.19953850	     31.19502473	     -0.35934686
